<svg version="1.1" id="Layer_1" xmlns="http://www.w3.org/2000/svg" xmlns:xlink="http://www.w3.org/1999/xlink" x="0px" y="0px"
	 width="100%" viewBox="0 0 336 336" enable-background="new 0 0 336 336" xml:space="preserve">
<path fill="#000000" opacity="1.000000" stroke="none" 
	d="
M129.006531,272.240173 
	C109.793037,272.069641 96.515961,260.028168 92.804077,239.659256 
	C89.348488,220.696777 90.912621,201.889755 94.837692,183.176468 
	C98.862633,163.987015 102.714836,144.759857 106.928406,125.612076 
	C109.143196,115.547356 111.903244,105.590019 115.397812,95.881325 
	C116.416481,93.051247 116.582359,90.589989 115.617279,87.715530 
	C113.963707,82.790413 114.186180,77.869667 117.112808,73.332001 
	C120.343872,68.322296 127.059647,65.527496 131.852829,68.768143 
	C137.817612,72.800880 143.371719,72.534698 149.616257,70.661400 
	C165.498779,65.896820 181.256760,67.723167 196.873505,72.049164 
	C199.537918,72.787224 201.521927,72.519318 203.845306,71.030045 
	C210.529251,66.745644 215.416458,66.629204 219.989304,70.207146 
	C225.002762,74.129837 226.803726,80.943291 224.327087,87.837334 
	C223.356293,90.539627 223.592957,92.795525 224.540924,95.484383 
	C229.019440,108.187363 232.361511,121.221710 235.104446,134.405975 
	C238.960709,152.941635 243.082306,171.428833 246.532135,190.040253 
	C249.610764,206.649033 250.710007,223.482666 247.091888,240.148727 
	C243.794647,255.336655 236.413513,267.760559 219.919052,271.382324 
	C203.204819,275.052368 188.780899,269.474579 183.285446,253.704147 
	C179.756927,243.578262 183.537415,237.036728 193.788559,234.348801 
	C195.557983,233.884827 197.255402,233.138046 199.031204,232.708252 
	C203.166107,231.707520 205.293243,229.396164 206.278824,224.996460 
	C209.105362,212.378647 212.509750,199.890289 215.707535,187.270035 
	C211.752121,185.345398 208.560165,187.160706 205.519623,187.774277 
	C194.931580,189.910889 184.448120,192.561462 173.906082,194.933014 
	C170.952545,195.597443 167.989548,195.372833 165.000305,194.686951 
	C153.332825,192.009918 141.635010,189.465332 129.954590,186.844208 
	C128.494537,186.516571 127.072571,185.996689 125.235680,186.745331 
	C124.740135,191.839905 126.684654,196.701157 127.772484,201.610123 
	C129.637756,210.027420 132.172241,218.294418 134.182877,226.682739 
	C134.790161,229.216293 135.775116,230.957581 138.317413,231.724854 
	C141.341827,232.637665 144.292038,233.847458 147.360840,234.552200 
	C155.156387,236.342514 158.562500,241.242065 157.715790,249.425201 
	C156.524261,260.940887 145.158005,273.322601 129.006531,272.240173 
M146.620590,116.135635 
	C143.870987,120.607719 139.524643,122.842995 133.546234,123.995697 
	C136.685806,125.628212 139.906662,123.845169 140.675262,127.100380 
	C141.396744,130.156067 138.484787,130.794266 136.825333,132.263794 
	C135.045731,133.839706 133.358582,135.520050 131.631073,137.154816 
	C134.671387,136.080231 137.216293,134.556686 139.824219,133.150009 
	C141.245605,132.383316 142.738541,132.329712 143.933960,133.654434 
	C145.040482,134.880692 144.584549,136.083405 143.773376,137.284149 
	C143.347595,137.914413 143.060425,138.638321 142.710663,139.319946 
	C146.707535,134.671646 151.789246,137.041580 156.391022,136.931168 
	C161.427307,136.810364 164.323471,134.562500 165.495743,129.449066 
	C166.474411,125.180168 165.924789,121.465225 161.180145,119.576691 
	C159.996292,119.105476 158.493729,118.556145 158.571365,116.917030 
	C158.654373,115.165237 160.185562,114.506851 161.541351,113.883560 
	C165.097595,112.248665 168.880234,111.301117 172.715652,112.177689 
	C176.091522,112.949249 180.095184,113.039841 181.705551,116.939644 
	C181.272003,118.316582 180.384094,118.880318 179.462158,119.184013 
	C174.109329,120.947273 173.455597,124.973656 174.567886,129.624481 
	C175.822067,134.868668 178.749451,136.810425 184.326599,136.940857 
	C187.771667,137.021439 191.257217,135.551636 195.014191,137.510437 
	C195.115067,133.820450 196.592346,131.728500 200.267593,133.291656 
	C202.773117,134.357315 205.092514,135.860596 207.495132,137.168198 
	C205.778748,134.740768 203.671021,132.894913 201.476944,131.158157 
	C199.943039,129.943985 198.591583,128.583084 199.471039,126.546379 
	C200.400421,124.394035 202.538681,124.870407 204.307449,125.066391 
	C205.725632,125.223534 207.100998,125.766899 208.495377,126.138863 
	C206.307434,124.211166 203.940109,122.680428 201.070084,122.411827 
	C199.071121,122.224754 197.460434,121.463264 196.513962,119.774384 
	C188.200195,104.939110 158.076340,104.806915 146.620590,116.135635 
M202.505585,110.206688 
	C200.987839,112.060455 200.911987,113.936806 202.983185,115.281715 
	C204.176010,116.056274 205.344391,115.144287 205.542206,113.858330 
	C205.835281,111.952988 206.347748,109.641899 202.505585,110.206688 
M138.592728,113.412033 
	C138.607239,111.884857 138.439682,110.358688 136.627884,110.009300 
	C135.546341,109.800735 134.834167,110.667442 134.541138,111.649811 
	C134.155472,112.942749 134.114532,114.309547 135.363098,115.165512 
	C136.773865,116.132675 137.776031,115.421494 138.592728,113.412033 
z"/>
<path fill="#000000" opacity="1.000000" stroke="none" 
	d="
M197.482468,202.710693 
	C191.813034,204.295715 186.527313,205.753754 181.228928,207.164185 
	C179.645569,207.585663 177.828796,208.320480 177.172577,205.893250 
	C176.707016,204.171158 176.841293,202.166077 178.666855,201.582916 
	C187.105560,198.887161 195.480606,195.891586 204.476349,194.350677 
	C205.654648,200.297424 201.814651,201.478851 197.482468,202.710693 
z"/>
<path fill="#000000" opacity="1.000000" stroke="none" 
	d="
M181.429337,212.323914 
	C188.252243,210.344330 194.699158,208.493286 201.365829,206.579117 
	C202.523056,210.589691 201.725189,212.823166 198.324097,213.805923 
	C191.670273,215.728592 185.013199,217.639984 178.208847,219.598831 
	C175.939209,215.535553 177.105087,213.407181 181.429337,212.323914 
z"/>
<path fill="#000000" opacity="1.000000" stroke="none" 
	d="
M179.619034,224.450607 
	C186.154083,222.527527 192.329285,220.772095 198.737625,218.950378 
	C199.885956,222.995651 199.309784,225.343185 195.223389,226.440338 
	C189.507889,227.974884 183.954147,230.134720 178.131943,230.871597 
	C176.339569,228.063629 176.909988,226.143723 179.619034,224.450607 
z"/>
</svg>