<svg width="336" height="336" viewBox="0 0 336 336" fill="none" xmlns="http://www.w3.org/2000/svg">
<path d="M129.006 272.24C109.793 272.07 96.5159 260.028 92.804 239.659C89.3484 220.697 90.9126 201.89 94.8376 183.177C98.8626 163.987 102.715 144.76 106.928 125.612C109.143 115.548 111.903 105.59 115.398 95.8815C116.416 93.0514 116.582 90.5901 115.617 87.7157C113.964 82.7906 114.186 77.8698 117.113 73.3322C120.344 68.3225 127.06 65.5277 131.853 68.7683C137.818 72.801 143.372 72.5349 149.616 70.6616C165.499 65.897 181.257 67.7233 196.873 72.0493C199.538 72.7874 201.522 72.5195 203.845 71.0302C210.529 66.7458 215.416 66.6294 219.989 70.2073C225.003 74.13 226.804 80.9435 224.327 87.8375C223.356 90.5398 223.593 92.7957 224.541 95.4845C229.019 108.188 232.361 121.222 235.104 134.406C238.961 152.942 243.082 171.429 246.532 190.04C249.611 206.649 250.71 223.483 247.092 240.149C243.795 255.337 236.413 267.761 219.919 271.382C203.205 275.053 188.781 269.475 183.285 253.704C179.757 243.578 183.537 237.037 193.789 234.349C195.558 233.885 197.255 233.138 199.031 232.708C203.166 231.708 205.293 229.396 206.279 224.997C209.105 212.379 212.51 199.89 215.707 187.27C211.752 185.346 208.56 187.161 205.52 187.774C194.932 189.911 184.448 192.562 173.906 194.933C170.952 195.598 167.989 195.373 165 194.687C153.333 192.01 141.635 189.465 129.955 186.844C128.494 186.517 127.073 185.997 125.236 186.745C124.74 191.84 126.685 196.701 127.772 201.61C129.638 210.028 132.172 218.295 134.183 226.683C134.79 229.216 135.775 230.958 138.317 231.725C141.342 232.638 144.292 233.848 147.361 234.552C155.156 236.343 158.562 241.242 157.716 249.425C156.524 260.941 145.158 273.323 129.006 272.24ZM146.621 116.136C143.871 120.608 139.525 122.843 133.546 123.996C136.686 125.628 139.907 123.845 140.675 127.101C141.397 130.156 138.485 130.794 136.825 132.264C135.046 133.84 133.359 135.52 131.631 137.155C134.671 136.08 137.216 134.557 139.824 133.15C141.246 132.383 142.738 132.33 143.934 133.655C145.04 134.881 144.584 136.084 143.773 137.284C143.348 137.915 143.06 138.638 142.711 139.32C146.707 134.672 151.789 137.042 156.391 136.931C161.427 136.811 164.323 134.563 165.496 129.449C166.474 125.18 165.925 121.465 161.18 119.577C159.996 119.106 158.494 118.556 158.571 116.917C158.654 115.165 160.186 114.507 161.541 113.884C165.098 112.249 168.88 111.301 172.716 112.178C176.091 112.949 180.095 113.04 181.705 116.94C181.272 118.317 180.384 118.88 179.462 119.184C174.109 120.947 173.456 124.974 174.568 129.625C175.822 134.869 178.749 136.811 184.327 136.941C187.772 137.022 191.257 135.552 195.014 137.511C195.115 133.821 196.592 131.729 200.268 133.292C202.773 134.357 205.092 135.861 207.495 137.168C205.779 134.741 203.671 132.895 201.477 131.158C199.943 129.944 198.592 128.583 199.471 126.547C200.4 124.394 202.539 124.871 204.307 125.067C205.726 125.224 207.101 125.767 208.495 126.139C206.307 124.211 203.94 122.681 201.07 122.412C199.071 122.225 197.46 121.463 196.514 119.775C188.2 104.939 158.076 104.807 146.621 116.136ZM202.506 110.207C200.988 112.061 200.912 113.937 202.983 115.282C204.176 116.056 205.344 115.144 205.542 113.858C205.835 111.953 206.348 109.642 202.506 110.207ZM138.593 113.412C138.607 111.885 138.44 110.359 136.628 110.009C135.546 109.801 134.834 110.668 134.541 111.65C134.155 112.943 134.114 114.31 135.363 115.166C136.774 116.133 137.776 115.422 138.593 113.412Z" fill="white"/>
<path d="M197.482 202.711C191.813 204.296 186.527 205.754 181.229 207.164C179.646 207.586 177.829 208.32 177.173 205.893C176.707 204.171 176.841 202.166 178.667 201.583C187.106 198.887 195.481 195.891 204.476 194.351C205.655 200.297 201.815 201.479 197.482 202.711Z" fill="white"/>
<path d="M181.429 212.324C188.252 210.344 194.699 208.493 201.366 206.579C202.523 210.59 201.725 212.823 198.324 213.806C191.67 215.729 185.013 217.64 178.209 219.599C175.939 215.536 177.105 213.407 181.429 212.324Z" fill="white"/>
<path d="M179.619 224.45C186.154 222.527 192.329 220.772 198.738 218.95C199.886 222.995 199.31 225.343 195.223 226.44C189.508 227.975 183.954 230.135 178.132 230.871C176.34 228.063 176.91 226.144 179.619 224.45Z" fill="white"/>
</svg>
